<svg xmlns="http://www.w3.org/2000/svg" viewBox="0 0 326 64" role="img" aria-label="فَهيم — FAHIM">
  <g transform="scale(.94) translate(2 2)" fill="none" stroke="#14213D" stroke-width="3.5">
    <path d="M6 18c9.5-2.8 18.5-1.8 26 4.5V54C24.5 48.3 15.8 46.8 6 49.5Z" stroke-linejoin="round"/>
    <path d="M58 18c-9.5-2.8-18.5-1.8-26 4.5V54c7.5-5.7 16.2-7.2 26-4.5Z" stroke-linejoin="round"/>
    <path d="M32 22.5V54" stroke-linecap="round"/><path d="m40.5 35.5 5.2 5.2 10-12.5" stroke-linecap="round" stroke-linejoin="round"/><path d="m12.5 39 6.3-7 5.4 4.2 5.2-7.4" stroke-linecap="round" stroke-linejoin="round"/>
    <circle cx="18.8" cy="32" r="2.4" fill="#14213D" stroke="none"/><circle cx="20" cy="16" r="4" fill="#14213D" stroke="none"/>
  </g>
  <text x="76" y="38" fill="#14213D" font-family="Cairo, 'Segoe UI', sans-serif" font-size="31" font-weight="900">فَهيم</text>
  <path d="M174 13v38" stroke="#14213D" stroke-width="2"/>
  <text x="190" y="27" fill="#14213D" font-family="Cairo, 'Segoe UI', sans-serif" font-size="14" font-weight="900" letter-spacing="2.8">FAHIM</text>
  <text x="190" y="44" fill="#14213D" font-family="Cairo, 'Segoe UI', sans-serif" font-size="7.5" font-weight="800" letter-spacing=".65">VERIFIED LEARNING OS</text>
</svg>
